<?xml version="1.0" encoding="UTF-8" standalone="yes"?>
<svg width="400" height="400" viewBox="0, 0, 400,400" version="1.2" baseProfile="tiny-ps" xmlns="http://www.w3.org/2000/svg">
  <title>bimi-svg-tiny-12-ps</title>
  <g id="svgg">
    <path id="path0" d="M220.898 27.578 C 202.321 29.414,192.244 31.613,178.516 36.824 C 172.751 39.013,163.746 43.428,157.813 46.976 C 133.979 61.226,113.431 79.730,96.353 102.322 C 94.169 105.210,92.119 107.956,91.797 108.424 C 87.871 114.126,84.744 118.804,84.141 119.875 C 83.335 121.308,83.136 121.633,81.535 124.113 C 80.949 125.022,80.469 125.874,80.469 126.006 C 80.469 126.138,80.144 126.713,79.748 127.283 C 78.252 129.433,71.400 142.652,69.175 147.677 C 68.657 148.847,67.809 150.771,67.291 151.953 C 66.772 153.135,66.112 154.629,65.824 155.273 C 65.536 155.918,64.831 157.676,64.257 159.180 C 63.683 160.684,62.974 162.529,62.681 163.281 C 44.925 208.856,44.233 259.496,60.764 303.417 C 62.925 309.158,69.427 322.278,72.427 326.953 C 72.910 327.705,73.800 329.111,74.405 330.078 C 76.234 333.001,81.831 340.268,84.334 342.969 C 85.628 344.365,86.694 345.632,86.703 345.784 C 86.767 346.896,100.197 358.008,106.641 362.280 C 127.532 376.130,155.802 381.099,187.695 376.526 C 200.859 374.639,211.245 371.559,225.586 365.289 C 230.582 363.105,246.290 354.992,248.498 353.456 C 249.068 353.059,249.654 352.734,249.799 352.734 C 250.074 352.734,251.483 351.847,258.984 346.948 C 262.879 344.404,272.091 337.769,272.656 337.100 C 272.764 336.973,273.218 336.615,273.666 336.305 C 275.589 334.976,281.106 330.175,285.742 325.796 C 306.768 305.941,319.959 282.266,313.147 276.613 C 309.979 273.984,305.518 277.786,296.484 290.818 C 290.832 298.972,282.498 308.195,275.000 314.594 C 272.959 316.336,271.201 317.853,271.094 317.965 C 269.959 319.147,260.389 325.769,255.859 328.507 C 236.412 340.262,220.840 345.299,198.964 346.911 C 163.151 349.550,136.802 338.283,121.232 313.672 C 101.868 283.065,100.663 226.173,118.331 176.758 C 121.205 168.719,122.177 166.263,124.972 159.961 C 125.354 159.102,125.997 157.607,126.403 156.641 C 127.854 153.178,135.759 137.779,137.832 134.375 C 138.290 133.623,138.786 132.744,138.934 132.422 C 140.179 129.704,153.764 109.817,155.477 108.203 C 155.591 108.096,156.295 107.217,157.041 106.251 C 163.713 97.616,175.468 85.670,184.335 78.516 C 185.267 77.764,186.228 76.973,186.472 76.758 C 188.046 75.368,197.485 68.665,199.659 67.394 C 200.384 66.970,201.943 66.052,203.125 65.353 C 226.869 51.321,253.151 48.353,267.969 58.032 C 270.953 59.982,274.752 62.988,275.878 64.292 L 276.951 65.535 274.706 66.422 C 269.724 68.389,263.402 71.398,259.961 73.440 C 258.887 74.078,257.744 74.723,257.422 74.875 C 256.815 75.160,252.391 78.135,250.919 79.248 C 250.457 79.597,249.587 80.234,248.985 80.664 C 222.142 99.818,205.758 136.574,210.652 166.665 C 216.220 200.904,237.681 219.925,260.334 210.700 C 301.087 194.103,332.276 132.428,321.623 89.504 C 320.842 86.357,320.863 86.342,326.190 86.334 C 343.265 86.309,377.015 89.697,396.049 93.347 C 397.207 93.568,398.569 93.750,399.077 93.750 L 400.000 93.750 400.000 75.789 L 400.000 57.827 399.121 57.641 C 398.638 57.539,394.111 57.094,389.063 56.653 C 352.679 53.473,329.755 53.636,309.446 57.220 L 306.445 57.749 301.172 52.604 C 298.271 49.775,295.416 47.066,294.826 46.585 C 292.769 44.909,288.077 41.519,286.914 40.869 C 286.270 40.509,285.039 39.778,284.180 39.245 C 271.393 31.319,240.561 25.635,220.898 27.578 M292.578 89.818 C 292.041 89.981,290.085 90.860,288.231 91.770 L 284.861 93.425 284.445 96.652 C 283.649 102.814,280.496 113.670,277.789 119.567 C 274.464 126.811,273.421 128.837,270.772 133.203 C 270.315 133.955,269.599 135.197,269.180 135.963 C 264.786 143.988,250.015 159.336,242.718 163.458 C 242.104 163.804,240.723 164.604,239.648 165.234 C 237.700 166.378,236.904 166.668,237.241 166.113 C 237.339 165.952,238.229 160.986,239.219 155.078 C 242.657 134.552,245.541 124.981,248.848 123.122 C 249.947 122.504,250.193 121.157,249.359 120.322 C 245.835 116.798,236.015 131.924,229.711 150.586 C 228.373 154.547,228.388 153.145,229.746 147.350 C 233.986 129.255,246.482 111.535,260.938 103.120 C 261.689 102.682,262.920 101.947,263.672 101.486 C 266.026 100.044,273.527 96.275,275.977 95.302 C 277.266 94.791,278.760 94.145,279.297 93.868 C 279.834 93.591,280.471 93.363,280.713 93.362 C 280.955 93.360,282.164 92.912,283.401 92.365 C 286.032 91.202,291.648 89.489,292.773 89.507 C 293.395 89.518,293.355 89.581,292.578 89.818 " stroke="none" fill="#cc2c44" fill-rule="evenodd"/>
    <path id="path1" d="" stroke="none" fill="#d02c44" fill-rule="evenodd"/>
    <path id="path2" d="" stroke="none" fill="#d02c44" fill-rule="evenodd"/>
    <path id="path3" d="" stroke="none" fill="#d02c44" fill-rule="evenodd"/>
    <path id="path4" d="" stroke="none" fill="#d02c44" fill-rule="evenodd"/>
    <path id="path5" d="" stroke="none" fill="#d02c44" fill-rule="evenodd"/>
    <path id="path6" d="" stroke="none" fill="#d02c44" fill-rule="evenodd"/>
    <path id="path7" d="" stroke="none" fill="#d02c44" fill-rule="evenodd"/>
    <path id="path8" d="" stroke="none" fill="#d02c44" fill-rule="evenodd"/>
  </g>
</svg>